<?xml version="1.0" encoding="utf-8"?>
<!-- Generator: Adobe Illustrator 24.1.0, SVG Export Plug-In . SVG Version: 6.00 Build 0)  -->
<svg version="1.1" id="Слой_1" xmlns="http://www.w3.org/2000/svg" xmlns:xlink="http://www.w3.org/1999/xlink" x="0px" y="0px"
	 width="400px" height="220px" viewBox="0 0 400 220" style="enable-background:new 0 0 400 220;" xml:space="preserve">
<g>
	<path d="M45.1,137.3c-7.4,0-11-5.7-9.1-12.3c3.8-13.7,28.5-33.9,45.3-33.9c12.2,0,11.3,11,4.1,20.3l-4,4.4
		C67.2,129.8,54,137.3,45.1,137.3 M105.2,45.2c-21.4,0-45.1,13.1-59.9,25.6l1.2,1.7c23-16.1,55-26.6,63.8-10.9
		c4.7,8.3-3.2,25.1-14.4,38.3c2.7-5.8,0.9-17.1-14.6-17.1c-25.8,0-76.5,34.1-76.5,69.1c0,14,9.7,23.1,25.7,23.1
		c42.8,0,100.8-70.2,100.8-105.4C131.3,57.2,124.2,45.2,105.2,45.2"/>
	<path d="M160.3,137.3c-2.5,0-4.6-0.9-5.9-2.5c-1.4-1.7-1.8-4-1.1-6.5c1.4-5.3,7.1-9.4,13-9.4h13.8l-4.9,18.3L160.3,137.3
		L160.3,137.3z M199.9,82.2c-3.9-4.8-10.3-7-14.9-7h-25l-4.2,15.8h23.6l2.3,0.2c0,0,2.2,0.2,3.4,1.9c1,1.3,1.1,3.3,0.4,6l-1.1,4.2
		h-14.9c-12.8,0-30.6,9.2-34.6,24c-2,7.4-0.2,13.8,3.6,18.5c3.8,4.7,11,7.2,18.8,7.2h13.8h0h17.5l8.2-30.7l6-22.5
		C205,91,202.5,85.4,199.9,82.2"/>
	<path d="M371.8,75.2c-6.8,0-13.1,2-18.2,5.8c-5.2,3.8-8,8.4-9.7,14.8c-3.7,13.7,7.1,20.4,15.8,25.1c6.2,3.4,11.6,6.3,10.4,10.6
		c-0.8,3.1-2.2,5.8-9.8,5.8H337l-4.2,15.8h25.9c6.9,0,13.3-1.4,18.5-5.4c5.2-4,8.1-9.5,9.9-16.3c1.7-6.4,0.6-12.6-3.6-17.2
		c-3.5-3.8-8.4-6.5-12.8-8.9c-5.6-3-10.9-5.9-10-9.3c0.6-2.1,2.6-5,7.2-5h22.7l4.2-15.8C394.8,75.2,371.8,75.2,371.8,75.2z"/>
	<path d="M236.2,75.2c-6.8,0-13.1,2-18.2,5.8c-5.2,3.8-8,8.4-9.7,14.8c-3.7,13.7,7.1,20.4,15.8,25.1c6.2,3.4,11.6,6.3,10.4,10.6
		c-0.8,3.1-2.2,5.8-9.8,5.8h-23.4l-4.2,15.8h25.9c6.9,0,13.4-1.4,18.5-5.4c5.2-4,8.1-9.5,9.9-16.3c1.7-6.4,0.6-12.6-3.6-17.2
		c-3.4-3.8-8.4-6.5-12.8-8.9c-5.6-3-10.9-5.9-9.9-9.3c0.6-2.1,2.6-5,7.1-5h22.7l4.3-15.8C259.1,75.2,236.2,75.2,236.2,75.2z"/>
	<polygon points="271.5,75.2 251.2,153.1 268.3,153.1 288.6,75.2 	"/>
	<path d="M334.2,75.2c-30.2,0.1-46,20.2-51,38.9c-5.9,22.2,5.9,38.9,27.5,38.9h14.5l4.2-15.8h-14.5c-8.1,0-19.2-6.4-14.7-23.1
		c3.6-13.3,16.5-23.1,30.7-23.1h9.2l4.2-15.8L334.2,75.2L334.2,75.2z"/>
</g>
</svg>
