<svg width="248" height="248" viewBox="0 0 248 248" fill="none" xmlns="http://www.w3.org/2000/svg">
<mask id="mask0_182_32" style="mask-type:luminance" maskUnits="userSpaceOnUse" x="90" y="47" width="107" height="128">
<path d="M90.5967 47H196.168V174.319H90.5967V47Z" fill="white"/>
</mask>
<g mask="url(#mask0_182_32)">
<path d="M168.95 103.336C157.602 99.8994 151.347 87.4056 154.979 75.4242C156.23 71.2797 158.506 67.7381 161.43 65.0103C161.43 65.0103 168.995 57.5803 180.931 61.7097C180.796 61.7097 180.66 61.6942 180.54 61.6942C173.321 61.6942 167.458 68.1596 167.458 76.117C167.458 84.0895 173.321 90.5401 180.54 90.5401C186.236 90.5401 191.089 86.5162 192.868 80.8947C192.868 80.8947 193.29 79.6891 193.531 77.7148C193.576 77.3834 193.606 76.9763 193.606 76.9763C194.058 71.9577 193.184 63.0508 183.358 55.9675C170.035 46.5783 151.302 47.5427 151.302 47.5427C118.01 47.5427 91.0186 75.1075 91.0186 109.138C91.0186 143.137 118.01 170.717 151.302 170.717H196.032V87.8572C192.415 99.8386 180.283 106.772 168.95 103.336Z" fill="black"/>
</g>
<mask id="mask1_182_32" style="mask-type:luminance" maskUnits="userSpaceOnUse" x="52" y="182" width="20" height="18">
<path d="M52 182.035H71.3058V199.999H52V182.035Z" fill="white"/>
</mask>
<g mask="url(#mask1_182_32)">
<path d="M59.2642 187.943H69.2712V184.627C69.2712 184.627 61.0576 184.627 59.9725 184.627C55.0594 184.643 52 187.777 52 192.178C52.015 196.579 55.2854 199.698 60.1835 199.683H69.2712V196.383H59.1436C57.6817 196.383 55.7677 194.544 55.7677 192.178C55.7677 189.797 57.6817 187.943 59.2642 187.943Z" fill="black"/>
</g>
<mask id="mask2_182_32" style="mask-type:luminance" maskUnits="userSpaceOnUse" x="109" y="178" width="9" height="22">
<path d="M109.887 178.177H117.603V200H109.887V178.177Z" fill="white"/>
</mask>
<g mask="url(#mask2_182_32)">
<path d="M114.936 199.683H111.229V180.875H114.936V199.683Z" fill="black"/>
</g>
<mask id="mask3_182_32" style="mask-type:luminance" maskUnits="userSpaceOnUse" x="113" y="182" width="17" height="18">
<path d="M113.746 182.035H129.178V199.999H113.746V182.035Z" fill="white"/>
</mask>
<g mask="url(#mask3_182_32)">
<path d="M116.669 188.184C117.272 188.003 119.035 187.024 121.703 187.536C124.355 188.063 126.149 191.093 122.697 198.809C122.125 199.864 123.707 200.015 123.707 200.015L126.254 199.698C126.254 199.698 130.504 190.746 127.174 186.948C123.828 183.151 116.971 184.673 116.518 184.959C115.584 185.562 116.081 188.365 116.669 188.184Z" fill="black"/>
</g>
<mask id="mask4_182_32" style="mask-type:luminance" maskUnits="userSpaceOnUse" x="167" y="178" width="17" height="22">
<path d="M167.759 178.177H183.192V200H167.759V178.177Z" fill="white"/>
</mask>
<g mask="url(#mask4_182_32)">
<path d="M181.594 184.643H176.395V181.81H172.627V184.643H169.387V188.095H172.627V199.684H176.395V188.095H181.594V184.643Z" fill="black"/>
</g>
<mask id="mask5_182_32" style="mask-type:luminance" maskUnits="userSpaceOnUse" x="183" y="178" width="14" height="22">
<path d="M183.192 178.177H196.168V200H183.192V178.177Z" fill="white"/>
</mask>
<g mask="url(#mask5_182_32)">
<path d="M196.168 184.643H190.969V181.81H187.216V184.643H183.961V188.095H187.216V199.684H190.969V188.095H196.168V184.643Z" fill="black"/>
</g>
<mask id="mask6_182_32" style="mask-type:luminance" maskUnits="userSpaceOnUse" x="67" y="182" width="28" height="18">
<path d="M67.4478 182.035H94.4548V199.999H67.4478V182.035Z" fill="white"/>
</mask>
<g mask="url(#mask6_182_32)">
<path d="M90.9884 189.48C90.9884 187.28 89.0895 184.627 85.4122 184.627H73.3103V187.958H85.382C86.5576 187.958 87.2358 188.591 87.2358 189.435V196.368H76.5204C75.39 196.368 74.6666 195.674 74.6666 194.845C74.6666 193.986 75.3448 193.353 76.5204 193.353H85.9095V190.174C85.9095 190.174 79.0372 190.158 76.5053 190.158C72.8129 190.158 70.8989 192.81 70.8989 195.026C70.914 197.814 73.476 199.683 76.5656 199.683H90.9884V189.48Z" fill="black"/>
</g>
<mask id="mask7_182_32" style="mask-type:luminance" maskUnits="userSpaceOnUse" x="129" y="182" width="24" height="18">
<path d="M129.178 182.035H152.327V199.999H129.178V182.035Z" fill="white"/>
</mask>
<g mask="url(#mask7_182_32)">
<path d="M149.855 189.48C149.855 187.28 147.956 184.627 144.264 184.627H132.177V187.958H144.249C145.424 187.958 146.102 188.591 146.102 189.435V196.368H135.387C134.257 196.368 133.533 195.674 133.533 194.845C133.533 193.986 134.212 193.353 135.387 193.353H144.776V190.174C144.776 190.174 137.904 190.158 135.372 190.158C131.68 190.158 129.766 192.81 129.766 195.026C129.781 197.814 132.343 199.683 135.432 199.683H149.855V189.48Z" fill="black"/>
</g>
<mask id="mask8_182_32" style="mask-type:luminance" maskUnits="userSpaceOnUse" x="90" y="182" width="9" height="18">
<path d="M90.5967 182.035H98.313V199.999H90.5967V182.035Z" fill="white"/>
</mask>
<g mask="url(#mask8_182_32)">
<path d="M97.0772 199.682H93.3547V184.642H97.0772V199.682Z" fill="black"/>
</g>
<path d="M98.7951 188.23C99.3979 188.049 100.302 187.07 102.955 187.582C104.658 187.913 105.698 189.119 105.577 192.058C105.547 192.872 109.134 192.586 109.134 191.968C109.149 189.572 109.45 187.838 107.385 185.94C104.838 183.604 99.0814 184.719 98.6293 185.005C97.6949 185.608 98.1922 188.411 98.7951 188.23Z" fill="black"/>
<mask id="mask9_182_32" style="mask-type:luminance" maskUnits="userSpaceOnUse" x="148" y="182" width="9" height="18">
<path d="M148.469 182.035H156.185V199.999H148.469V182.035Z" fill="white"/>
</mask>
<g mask="url(#mask9_182_32)">
<path d="M155.944 199.682H152.221V184.642H155.944V199.682Z" fill="black"/>
</g>
<path d="M157.662 188.23C158.249 188.049 159.169 187.07 161.821 187.582C163.524 187.913 164.549 189.119 164.444 192.058C164.414 192.872 168 192.586 168 191.968C168.015 189.572 168.317 187.838 166.252 185.94C163.705 183.604 157.948 184.719 157.511 185.005C156.562 185.608 157.059 188.411 157.662 188.23Z" fill="black"/>
<mask id="mask10_182_32" style="mask-type:luminance" maskUnits="userSpaceOnUse" x="190" y="193" width="7" height="7">
<path d="M190.908 193.609H196.168V199.999H190.908V193.609Z" fill="white"/>
</mask>
<g mask="url(#mask10_182_32)">
<path fill-rule="evenodd" clip-rule="evenodd" d="M192.762 198.085C192.762 199.004 193.5 199.743 194.42 199.743C195.339 199.743 196.092 199.004 196.092 198.085C196.092 197.166 195.339 196.412 194.42 196.412C193.5 196.412 192.762 197.166 192.762 198.085ZM195.761 198.085C195.761 198.839 195.158 199.441 194.42 199.441C193.681 199.441 193.093 198.839 193.093 198.085C193.093 197.331 193.681 196.729 194.42 196.729C195.158 196.729 195.761 197.331 195.761 198.085ZM193.787 199.05H194.103V198.206H194.329L194.887 199.05H195.248L194.691 198.206C194.977 198.175 195.203 198.025 195.203 197.663C195.203 197.286 194.977 197.105 194.525 197.105H193.787V199.05ZM194.103 197.392H194.54C194.751 197.392 194.887 197.467 194.887 197.648C194.887 197.859 194.736 197.934 194.45 197.934H194.103V197.392Z" fill="black"/>
</g>
</svg>
