<?xml version="1.0" encoding="utf-8"?>
<!-- Generator: Adobe Illustrator 21.0.1, SVG Export Plug-In . SVG Version: 6.00 Build 0)  -->
<svg version="1.1" id="Fred_Perry" xmlns="http://www.w3.org/2000/svg" xmlns:xlink="http://www.w3.org/1999/xlink" x="0px" y="0px"
	 viewBox="0 0 404.8 220" style="enable-background:new 0 0 404.8 220;" xml:space="preserve">
<title>Fred Perry</title>
<path d="M133.8,7c0.3-2.4,0.9-4.7,1.8-7c6.8,8.8,8.6,21.8,3.4,31.8C133.8,24.7,132.6,15.5,133.8,7L133.8,7z"/>
<path d="M40.3,8.4c2.4-3.1,5.8-5,8.4-7.8c0.5,11.8-6.1,23.8-17,28.7C33.1,21.9,35.4,14.3,40.3,8.4L40.3,8.4z"/>
<path d="M115.6,1.9c10,3.9,16.6,14.1,18.2,24.5c-6.3-2.2-11.2-7.3-14.4-13.1c-2-3.6-3.2-7.5-3.7-11.5l0,0L115.6,1.9z"/>
<path d="M23,17.4c0.6-4.6,2.4-9,5.3-12.6c1.7,4.6,2.7,9.5,2.9,14.4c-0.2,6.4-2.1,12.6-5.5,18c-2.9-6.2-3.9-13.1-2.8-19.9l0,0
	L23,17.4z"/>
<path d="M146.6,15c4.4,5.4,5.9,12.5,6,19.3c0,5.2-1.2,10.4-3.3,15.1c-3.5-6.4-5.9-13.6-5.6-21C143.5,23.8,144.5,19.2,146.6,15
	L146.6,15z"/>
<path d="M20.3,53.6c-7.2-9-9.8-22.2-4.6-32.8c6,9.5,9.1,21.9,5,32.8H20.3z"/>
<path d="M118.1,22.7c11.2,1.3,21,9.1,25.7,19.2C132.7,40.4,122.4,33.1,118.1,22.7L118.1,22.7z"/>
<path d="M37.1,29c3.2-2.4,7.1-3.8,11.1-4.1c-3.3,7.1-8,13.9-14.6,18.4c-3,2.1-6.7,2.7-9.7,4.7C26.2,40.5,30.6,33.5,37.1,29L37.1,29
	L37.1,29z"/>
<path d="M155.6,38.8c1.9-3.6,4.6-6.7,7.9-9.2c1.6,8.4,0.8,17.6-3.9,24.8c-1.9,3.1-4.7,5.5-7.4,8C150.8,54.4,152,46.1,155.6,38.8
	L155.6,38.8z"/>
<path d="M3.9,39.1c5.9,4.1,10.7,9.8,12.9,16.6c1.3,3.8,1.8,7.9,1.4,11.9C8.9,61.4,3.9,50.1,3.9,39.1L3.9,39.1z"/>
<path d="M133.9,41.3c6.8,3.3,12,9.2,14.5,16.3c1.2,3.6,1.7,7.4,1.6,11.2C140,63.4,135.1,52.1,133.9,41.3L133.9,41.3L133.9,41.3z"/>
<path d="M23.1,56.3c2-4.7,5.7-8.5,10.3-10.8c0,7.5-1.7,15.3-6.1,21.4c-1.9,2.6-4.3,4.7-6.5,7C20,67.9,20.8,61.9,23.1,56.3L23.1,56.3
	z"/>
<path d="M156.5,61.2c2.3-2.7,5-5,8-7c0.7,12-6.1,23.5-16,29.9C148.5,75.9,151,67.4,156.5,61.2L156.5,61.2z"/>
<path d="M3.3,59.9c10.6,4.2,17,15.5,17.8,26.5C14.8,83,9.7,77.7,6.5,71.3C4.7,67.7,4.3,63.7,3.3,59.9L3.3,59.9L3.3,59.9z"/>
<path d="M143.9,66.6c2.8,5.7,3.2,12.4,2.1,18.6c-1.3,6-3.9,11.7-7.5,16.7c-4.2-11.8-0.3-24.7,5.5-35.3l0,0L143.9,66.6z"/>
<path d="M31.7,103.5c-7.2-8.4-10.3-21.1-5.5-31.4C33.8,80.5,34.8,93,31.7,103.5L31.7,103.5z"/>
<path d="M159.8,77.8c3.3-2,7.2-2.6,10.8-3.8c-2.9,7.6-8.1,14.2-15,18.6c-3.5,2.3-7.6,3.5-11.8,3.6C147.4,88.8,152.6,81.9,159.8,77.8
	L159.8,77.8z"/>
<path d="M0.7,79.8c11.4,0.8,21.4,9.2,25.6,19.7c-8.1-1.8-16.2-5.8-21.1-12.7C3.6,84.5,2.3,82,0.7,79.8L0.7,79.8z"/>
<path d="M146.7,99.2c4-2.4,8.3-4.3,12.8-5.5c-1.1,3.6-3.4,6.6-5.4,9.7c-5.2,7.1-13.6,10.9-21.9,13c2.4-7.4,8-13.3,14.6-17.2l0,0
	H146.7z"/>
<path d="M127.7,101.1c2.2-2.4,5.1-3.8,7.6-5.9c0.7,12.1-6.1,24.4-17.2,29.6C118.8,116.2,121.6,107.4,127.7,101.1L127.7,101.1z"/>
<path d="M35.8,96.1c7,3.2,12,9.7,14.7,16.7c1.7,4.3,2.7,8.9,3,13.5c-6.2-3.1-10.8-8.9-13.5-15.2C38,106.3,36.5,101.3,35.8,96.1
	L35.8,96.1z"/>
<path d="M14.4,99.7c11.9,0.2,22.7,8.6,27.1,19.4c-8.1-1.7-16.3-4.9-22-11.2C17.3,105.5,15.5,102.8,14.4,99.7L14.4,99.7z"/>
<path d="M88.9,136.3c4.3-11.6,15.9-19,27.7-21.5c-2.5,7.2-8.1,13-14.7,16.6C97.8,133.7,93.5,135.4,88.9,136.3L88.9,136.3z"/>
<path d="M54.5,116.1c11.8,0.7,21.7,9.6,26.2,20.1c-6.1-0.1-11.7-3.2-16.2-7.1C60.3,125.5,56.9,121.1,54.5,116.1L54.5,116.1z"/>
<path d="M122.6,125.7c4.9-5.6,12.2-8.7,19.5-9.3c4.6-0.3,9.2,0,13.7,0.9c-5,5.6-12.3,8.5-19.7,9.1
	C131.6,126.8,127,126.5,122.6,125.7L122.6,125.7z"/>
<path d="M16,122.1c4.1-2.7,9.3-3.3,14.1-2.9c7.2,0.7,14.1,3.5,19.8,8c-5.9,2.6-12.6,2.5-18.7,1.1C25.9,127,20.8,124.9,16,122.1
	L16,122.1z"/>
<path d="M106.3,133c5.7-4.8,13.7-5.8,20.9-4.7c4.5,0.7,8.8,2.4,12.6,4.8c-7.3,2.7-15.2,4.5-23,3.7C113,136.4,109.4,135.1,106.3,133
	L106.3,133z"/>
<path d="M33.2,136.8c7.3-5.3,16.8-7.1,25.6-6c2.8,0.4,5.8,1,8,2.9c-6.9,5.2-16,6.1-24.3,5.2C39.3,138.5,36.2,137.8,33.2,136.8
	L33.2,136.8L33.2,136.8z"/>
<path d="M85.2,140c8.9-3.2,18.8-5.1,28.1-2.6c3.9,1.1,7.4,3.1,10.3,5.9c-7.7,3-16.4,2.1-24.1-0.3c-2.8-0.8-5.4-2.3-8.2-3.1
	s-2.6,0.3-3.7,1c4,3.6,7,8.4,11.4,11.6c-0.6,0.6-1,2-2.1,1.5c-5.4-1.9-5.7-9.1-10.6-11.7c-0.9-0.6-2.1-0.5-2.9,0.2
	c-4,3-6.4,7.5-9.6,11.2c-1.1-0.3-2.1-1-2.8-1.9c3.4-3.5,7.2-6.6,10.9-9.8c0.5-0.5,0.9-1,1.2-1.7c-2.5-0.5-4.6,1.2-6.7,2.1
	c-5.4,2.5-11.1,4.7-17.1,4.6c-2.8-0.1-5.6-0.9-8.1-2.2c5.7-5.3,13.3-8,21-7.7c4.5-0.1,8.9,1.2,13.1,2.9l0,0H85.2z"/>
<path d="M0,170.8h34.5c0.1,3.1,0.1,6.1,0,9.2H10.9c0.1,3.7,0,7.5,0,11.2h20.5c0,2.8,0,5.7,0,8.5H10.8c0.1,6.7,0.1,13.5,0,20.2H0
	c0-16.4,0-32.8,0-49.2l0,0V170.8z"/>
<path d="M38.6,170.8H63c2.6-0.1,5.2,0.2,7.7,1c3.6,1.3,6.5,4.2,7.8,7.8c1.1,3.3,1.1,6.9,0,10.2c-1.2,3.2-3.7,5.7-6.9,7
	c2.3,0.6,4.2,2.2,5.3,4.3c3.2,5.9,0.7,13,3.8,18.9H69.9c-1.7-4.9-0.7-10.4-2.5-15.2c-0.9-2.7-3.9-3.9-6.5-3.9H49.5
	c0,6.4,0,12.8,0,19.1c-3.6,0.1-7.3,0.1-10.9,0c0-16.4,0-32.8,0-49.1l0,0V170.8z M49.5,179.3c0,4.5,0,9.1,0,13.7H62
	c2.2-0.1,4.6-0.9,5.7-2.9c1.1-2.3,1.2-5,0.3-7.4c-0.9-2.4-3.6-3.3-6-3.4L49.5,179.3L49.5,179.3z"/>
<path d="M85.6,170.8h36.7c0,3.1,0,6.1,0,9.2H96.4c0.1,3.5,0.1,6.9,0,10.4h23.7c0.1,2.8,0.1,5.7-0.1,8.5H96.4c0,4,0,8,0,11.9h26.3
	c0.1,3,0.1,6.1,0,9.1H85.6V170.8L85.6,170.8z"/>
<path d="M127.2,170.8H148c5.1-0.2,10.1,1.4,14.2,4.3c4.6,3.4,7.2,8.9,8,14.5c1,6,0.3,12.1-1.8,17.8c-2,5.2-6.2,9.3-11.4,11.2
	c-4.7,1.8-9.9,1.4-14.9,1.4h-14.9C127.2,203.6,127.2,187.2,127.2,170.8L127.2,170.8L127.2,170.8z M138.1,180c0,10.3,0,20.5,0,30.8
	h10.5c3.8-0.1,7.2-2.1,9.1-5.4c2.4-4.4,2.4-9.7,1.7-14.5s-2.4-7.5-5.9-9.2s-10.3-1.4-15.4-1.6l0,0L138.1,180z"/>
<path d="M184.3,219.9c0-16.4,0-32.8,0-49.1h22.3c4.5,0,9.2,1.2,12.4,4.4c3.1,3.3,4.7,7.8,4.3,12.4c-0.1,4.4-2,8.5-5.4,11.3
	c-3.3,2.7-7.7,3.5-11.9,3.4h-10.9c0,5.9,0,11.7,0,17.6C191.5,220,187.9,220,184.3,219.9L184.3,219.9L184.3,219.9z M195.1,179.3
	c0,4.9,0.1,9.7,0,14.6c3.6,0,7.3,0.1,10.9-0.1s5.2-1.3,6.2-3.8s0.6-8.8-3.6-10s-9.1-0.5-13.6-0.7l0,0H195.1z"/>
<path d="M228.2,170.8h36.7c0,3.1,0,6.1,0,9.2h-25.8c0,3.5,0,6.9,0,10.4h23.7v8.5h-23.7c0,4,0,8,0,11.9h26.4v9.1h-37.3V170.8
	L228.2,170.8z"/>
<path d="M269.9,170.8h26c3.3-0.1,6.6,0.8,9.3,2.7c6.9,4.7,7.5,16.5,0.8,21.6c-0.9,0.7-1.9,1.2-3,1.7c2.2,0.6,4,2.1,5.1,4
	c3.4,5.9,0.8,13.2,3.9,19.2h-10.8c-1.7-4.9-0.7-10.4-2.5-15.2c-0.9-2.5-3.5-3.8-6.1-3.9h-11.8c0,6.4,0,12.8,0,19.2h-10.9
	c0-16.4,0-32.8,0-49.1l0,0V170.8z M280.8,179.3c0,4.5,0,9.1,0,13.7h12.5c2.2-0.1,4.6-0.8,5.7-2.9c1.2-2.4,1.2-5.2,0.1-7.7
	c-1-2.2-3.6-2.9-5.9-3h-12.4L280.8,179.3L280.8,179.3z"/>
<path d="M316.5,170.8h26.2c4.1-0.2,8.1,1.4,11,4.3c3.8,3.8,4.5,9.9,2.7,14.9c-1.2,3.1-3.6,5.6-6.7,6.8c2.3,0.7,4.2,2.4,5.3,4.5
	c3.1,5.8,0.6,13,3.7,18.8c-3.7,0-7.3,0.1-11-0.1c-1.7-5-0.6-10.5-2.6-15.4c-0.9-2.5-3.7-3.6-6.2-3.7h-11.6c0,6.4,0,12.8,0,19.1
	c-3.6,0.1-7.2,0.1-10.9,0c0-16.4,0-32.7,0-49.1l0,0L316.5,170.8z M327.4,179.3c0,4.5,0,9.1,0,13.7c4.9-0.2,9.8,0.4,14.6-0.3
	s5.4-6.3,3.9-9.9s-3.5-3.4-5.8-3.5H327.4L327.4,179.3z"/>
<path d="M357.7,170.8H370l11.4,19.3l11.4-19.3h12l-17.7,29.5c-0.5,0.9-0.6,1.9-0.5,2.9c0,5.6,0,11.1,0,16.7h-10.9
	c0-6.1,0-12.2,0-18.3c-0.1-0.8-0.3-1.5-0.8-2.1L357.7,170.8L357.7,170.8L357.7,170.8z"/>
</svg>
