<?xml version="1.0" encoding="utf-8"?>
<!-- Generator: Adobe Illustrator 19.2.1, SVG Export Plug-In . SVG Version: 6.00 Build 0)  -->
<svg version="1.1" id="layer" xmlns="http://www.w3.org/2000/svg" xmlns:xlink="http://www.w3.org/1999/xlink" x="0px" y="0px"
	 viewBox="0 0 652 652" style="enable-background:new 0 0 652 652;" xml:space="preserve">
<style type="text/css">
	.st0{fill:#00B6F2;}
</style>
<path class="st0" d="M346,274.3c5.1,3,10.9,4,17.6,2.8c6.6-1.1,11.9-4,15.6-8.5c3.8-4.5,5.1-10.1,4-16.6s-4.2-11.3-9.3-14.4
	c-5.1-3.1-10.9-4.1-17.6-3c-6.6,1.1-11.9,4-15.6,8.6c-3.8,4.6-5.1,10.2-4,16.7C337.8,266.5,340.9,271.3,346,274.3 M200.6,364.5
	c0.1,1.8-0.9,3.4-2.4,4.2c-1.7,1-3.7,1.5-5.7,1.4c-2.2,0.1-4.4-0.7-6-2.2c-1.5-1.5-2.2-3.5-2.2-6.2c-0.1-1.9,0.4-3.8,1.3-5.4
	c0.9-1.4,2.1-2.6,3.5-3.4c1.6-0.9,3.4-1.6,5.2-2c2.1-0.5,4.2-0.8,6.3-1L200.6,364.5L200.6,364.5z M248.9,373.8v-47.4
	c0-16.2,1.3-30.7-6.9-38.2c-8.2-7.5-21.8-11.6-40.7-11.2c-44,0.9-52.4,21.7-53.7,25.4c-1.6,4.7-1.9,7.5-1.9,9.9
	c0.1,1.4,0.3,4,1.2,5.5c1.3,1.8,4,2.4,11.9-0.9c0,0,41.7-18,41.7,4v3.4c-5.8,0.1-11.5,0.5-17.3,1.2c-7.5,0.8-14.9,2.7-21.9,5.7
	c-6.9,2.8-13.1,7.2-18,12.7c-4.9,5.6-7.4,13.1-7.4,22.5c0,6.7,1.1,12.3,3.2,17c1.9,4.4,4.8,8.2,8.5,11.2c3.6,2.9,7.8,5,12.2,6.2
	c4.7,1.3,9.6,2,14.5,2c10.1,0,23.4-4.3,23.4-4.3c9.6-3.3,17.9,1.8,17.9,1.8c8,3.3,16.2,2.5,20.7,2.5h0.8c2.6-0.1,13.8-0.4,13-7.9
	C249.4,388.8,248.8,373.9,248.9,373.8 M324.9,283.8l-10,0.1c0,0-13.1,0.9-13.1-9.6c0-17.1-4.1-21.5-4.1-21.5
	c-2.3-3.1-5.4-5.4-8.9-6.8c-4-1.7-9.6-2.3-16.8-2.3h-7.7c-12,0-10.7,12.8-10.7,12.8l0.1,12.9V358c0,3.4,0.2,6.9,0.5,10.6
	c0.3,3.8,1.2,7.5,2.4,11.1c2.5,7.2,7.3,13.4,13.6,17.6c6.5,4.5,15.6,6.7,27.2,6.7c7.8,0,15.5-1.8,20.7-5.2
	c13.6-8.8,16.2-22.7,16.2-25.7c0.3-12.8-12.4-7.9-12.4-7.9c-3.2,1.1-6.1,2.1-9,2.1c-3.4,0-6.1-0.9-8-2.7c-1.9-1.7-2.9-4.9-2.9-9.5
	l-0.3-8.8v-11c0-12.4,17.9-17.9,17.9-17.9s7.3-2.8,9.2-4.1c2.1-1.5,3.7-2.2,4.9-5.3c1.4-3.5,2.2-11.6,2.2-14.9
	C336.6,283.6,327.7,283.8,324.9,283.8 M384.8,302.7c-0.5-7.3-5.3-13.7-12.2-16.2c-3.9-1.7-9.4-2.3-16.4-2.3h-6.8l-0.9,0.2
	c-11.3,0-10.2,12.4-10.2,12.4l0.1,12.6l-0.1,64c0,3.8,0.2,7.6,0.6,11.4c0.3,3.4,1.5,6.7,3.4,9.5c2.2,3,5.3,5.3,8.7,6.7
	c3.9,1.7,9.4,2.3,16.5,2.3h6.8c10.8,0,11.2-12.5,11.2-12.5l-0.1-12.6l0.1-64C385.3,310.2,385.2,306.4,384.8,302.7 M506.9,297.7
	c3.4-11.4-9.4-14.1-9.4-14.1s-10-1.1-15.1-1.1c-8.4,0-14.6,2.3-18.6,7c-4,4.9-6.7,10.8-7.7,17l-4.9,20c-1.3,6.4-3.1,12.7-5.1,18.8
	c-2-6.2-3.8-12.5-5.1-18.8l-4.8-20c-1-6.3-3.6-12.1-7.7-17c-4-4.7-10.2-7.1-18.6-7c-5,0-15,1.1-15,1.1s-12.9,2.7-9.5,14.1
	c0.6,2.1,1.3,4.4,2.1,6.9l31.7,84c1.4,3.4,3.6,6.3,6.4,8.6c3.2,2.4,6.9,3.8,10.9,4.1H456c3.9-0.3,7.7-1.7,10.9-4
	c2.8-2.3,5-5.2,6.4-8.6l31.7-84C505.6,302.1,506.3,299.9,506.9,297.7 M133.5,330.4c0-1.6,0-3.6-0.1-5.8c-0.1-2.3-0.2-4.6-0.3-6.9
	c-0.1-2.3-0.2-4.7-0.5-7c-0.2-2.1-0.6-4.2-1.1-6.2c-1.5-7.5-5.6-14.3-11.4-19.2c-5.8-4.9-12.1-7.3-22.2-7.3
	c-8.9,0-15.6,1.6-20.9,4.7c-2.4,1.4-4.7,3-6.8,4.9c-1.8,1.6-6,2.1-7.9,0.3c-2.5-2.5-5.3-4.6-8.4-6.3c-6.2-3.4-36.7-8-36.7,10.1
	l0.1,75.1c0,0,0.2,11.7,0.6,15.5c0.3,3.6,1.6,7.1,3.7,10.1c2.3,3.2,5.5,5.6,9.2,7.1c4.1,1.8,9.9,2.4,17.4,2.4c2.6,0,5.6-0.3,7.8-0.3
	c11.9,0,10.8-13.1,10.8-13.1v-56.1c0,0-0.2-8.3,8.9-8.3c9.9,0,8.9,3.8,8.9,30.2v14.8c0,4,0.2,8,0.6,12c0.3,3.6,1.6,7.1,3.6,10.1
	c2.4,3.2,5.6,5.6,9.2,7c4.1,1.8,9.9,2.4,17.4,2.4h7.2c11.9,0,10.8-13.1,10.8-13.1S133.5,330.4,133.5,330.4z M545.7,342.7
	c-0.5-1.7-0.8-3.5-0.9-5.3c-0.2-1.6-0.2-3.2,0.2-4.8c0.3-1.5,1-2.9,2-4.1c1.3-1.4,2.9-2.5,4.6-3.2c2.5-1.1,4.7-1.4,6.6-0.9
	c1.9,0.5,3.4,1.9,4.1,3.7c0.7,1.5,0.9,3.2,0.5,4.9c-0.4,1.7-1.5,3-3.1,3.6L545.7,342.7z M551.4,358.4c7-2.6,59.4-23.3,59.4-23.3
	c14.4-7.2-7.3-36.2-7.3-36.2c-23.8-28.7-62.2-16.7-62.2-16.7c-26.6,7.1-35.1,26.6-35.1,26.6c-4.4,8-6.9,16.9-7.5,26.1
	c-0.9,13.7,0.9,25,4.6,33.8s8.4,15.3,14.6,20.5c6.1,5.1,13.8,10,21.3,12.1c7.5,2.1,28.1,7.2,48.1-2.6c5.4-2.6,13.4-8.2,18.6-15.2
	c3-4.1,9-13.2,5.6-19.6c-3.4-6.4-17.3,2.4-25.4,5.6c-9.2,3.6-28.1,7.9-38.8-4.2C547.4,365.2,544.4,361,551.4,358.4"/>
<path class="st0" d="M563.1,370.1c-0.3,0-0.5,0-0.8,0c-0.7-0.1-1.3-0.4-1.9-0.8c-0.5-0.4-0.9-0.9-1.2-1.5c-0.3-0.6,0-1.4,0.5-1.7
	c0.5-0.4,1.2-0.5,1.7-0.2c0.3,0.2,0.6,0.4,0.8,0.7c0.3,0.3,0.7,0.5,1.1,0.6c0.3,0,0.6-0.1,0.9-0.2c0.4-0.1,0.8-0.4,1-0.7
	c0.2-0.2,0.2-0.5,0.1-0.7c-0.2-0.3-0.5-0.5-0.9-0.5c-0.5,0-1,0.1-1.5,0.1c-0.6,0.1-1.1,0.1-1.7,0.1h-0.6c-0.7,0-1.3-0.2-1.9-0.6
	c-0.6-0.4-1-1-1.3-1.7c-0.3-0.7-0.3-1.4-0.1-2.1c0.2-0.7,0.6-1.4,1.2-1.9c0.6-0.6,1.4-1,2.2-1.3c0.6-0.2,1.3-0.4,2-0.4
	c0.6,0,1.1,0,1.6,0.2c0.4,0.1,0.9,0.4,1.2,0.7c0.3,0.3,0.6,0.7,0.7,1.1c0.2,0.5,0,1.2-0.5,1.5c-0.5,0.4-1.1,0.4-1.7,0.2
	c-0.4-0.3-0.8-0.6-1.3-0.7c-0.6-0.1-1.2,0-1.7,0.3c-0.4,0.2-0.6,0.7-0.4,1.1c0,0,0,0,0,0c0.3,0.4,1.5,0.1,2,0.1
	c0.7-0.1,1.3-0.1,1.8-0.2c0.6,0,1.1,0,1.6,0.2c0.5,0.1,1,0.4,1.4,0.8c0.4,0.4,0.8,0.9,0.9,1.5c0.3,0.7,0.3,1.5,0.2,2.3
	c-0.2,0.8-0.6,1.5-1.2,2c-0.7,0.6-1.4,1.1-2.3,1.4C564.7,370,563.9,370.2,563.1,370.1 M605.2,354.3c-0.3,0-0.5,0-0.8,0
	c-0.7-0.1-1.3-0.4-1.9-0.8c-0.5-0.4-0.9-0.9-1.2-1.5c-0.3-0.6,0-1.4,0.5-1.7c0.5-0.4,1.2-0.5,1.7-0.2c0.3,0.2,0.6,0.4,0.8,0.7
	c0.3,0.3,0.7,0.5,1.1,0.6c0.3,0,0.6-0.1,0.9-0.2c0.4-0.1,0.8-0.4,1-0.7c0.2-0.2,0.2-0.5,0.1-0.7c-0.2-0.3-0.5-0.5-0.9-0.5
	c-0.5,0-1,0.1-1.5,0.1c-0.6,0.1-1.1,0.1-1.7,0.1h-0.6c-0.7,0-1.3-0.2-1.9-0.6c-0.6-0.4-1-1-1.3-1.7c-0.3-0.7-0.3-1.4-0.1-2.1
	c0.2-0.7,0.6-1.4,1.2-1.9c0.6-0.6,1.4-1,2.2-1.3c0.6-0.2,1.3-0.4,2-0.4c0.6,0,1.1,0,1.6,0.2c0.4,0.1,0.9,0.4,1.2,0.7
	c0.3,0.3,0.6,0.7,0.7,1.1c0.2,0.5,0,1.2-0.5,1.5c-0.5,0.4-1.1,0.4-1.7,0.2c-0.4-0.3-0.8-0.5-1.3-0.7c-0.6-0.1-1.2,0-1.7,0.3
	c-0.4,0.2-0.6,0.7-0.4,1.1c0,0,0,0,0,0c0.3,0.4,1.5,0.1,2,0.1c0.7-0.1,1.3-0.1,1.8-0.2c0.6,0,1.1,0.1,1.6,0.2c0.5,0.1,1,0.4,1.4,0.8
	c0.4,0.4,0.8,0.9,0.9,1.5c0.3,0.7,0.3,1.5,0.2,2.3c-0.2,0.8-0.6,1.5-1.2,2c-0.7,0.6-1.4,1.1-2.3,1.4
	C606.8,354.2,606,354.4,605.2,354.3 M571,367c-0.5-0.3-0.8-0.7-0.9-1.2l-3.1-8.2c-0.2-0.5-0.2-1-0.1-1.5c0.2-0.5,0.6-0.9,1.1-1
	c0.5-0.1,0.9-0.1,1.4,0.1c0.5,0.3,0.8,0.7,1,1.2l0.9,2.3l3.3-1.2l-0.9-2.4c-0.2-0.5-0.2-1-0.1-1.5c0.2-0.5,0.6-0.8,1-1
	c0.5-0.2,1-0.1,1.4,0.1c0.5,0.3,0.8,0.7,0.9,1.2l3.1,8.2c0.2,0.5,0.2,1.1,0.1,1.6c-0.2,0.5-0.6,0.8-1,0.9c-0.5,0.2-1,0.2-1.4-0.1
	c-0.5-0.3-0.8-0.7-0.9-1.2l-1.1-2.9l-3.3,1.3l1.1,2.9c0.2,0.5,0.2,1,0.1,1.6c-0.2,0.5-0.6,0.9-1.1,1
	C571.9,367.2,571.5,367.2,571,367 M584.6,352.3c-0.3,0-0.6,0.1-0.9,0.2c-0.3,0.1-0.6,0.3-0.8,0.5c-0.2,0.2-0.4,0.5-0.5,0.8
	c-0.1,0.4-0.2,0.8-0.2,1.1c0,0.5,0.2,1,0.3,1.5c0.2,0.5,0.4,0.9,0.7,1.3c0.2,0.3,0.5,0.6,0.9,0.8c0.3,0.2,0.6,0.3,0.9,0.3
	c0.3,0,0.6-0.1,0.9-0.2c0.4-0.1,0.8-0.4,1.1-0.7c0.3-0.4,0.4-0.8,0.5-1.3c0-0.7-0.1-1.3-0.3-2c-0.2-0.6-0.5-1.1-0.9-1.6
	c-0.3-0.3-0.7-0.6-1.2-0.7L584.6,352.3z M584.7,362h-0.2c-0.8,0-1.6-0.2-2.3-0.6c-0.7-0.4-1.4-0.9-1.9-1.5c-0.5-0.7-1-1.4-1.3-2.3
	c-0.3-0.8-0.5-1.7-0.5-2.5c0-0.8,0.1-1.6,0.4-2.4c0.3-0.7,0.8-1.4,1.4-1.9c0.6-0.6,1.4-1,2.2-1.3c0.8-0.3,1.6-0.5,2.5-0.5
	c0.3,0,0.6,0,0.9,0.1c1.1,0.2,2,0.7,2.8,1.4c0.8,0.8,1.4,1.8,1.8,2.9c0.3,0.8,0.5,1.7,0.5,2.5c0,0.8-0.1,1.6-0.4,2.4
	c-0.3,0.7-0.8,1.4-1.4,1.9c-0.7,0.6-1.4,1-2.2,1.3C586.3,361.8,585.5,362,584.7,362 M593.7,358.3c-0.5-0.3-0.9-0.7-1-1.2l-2.9-7.9
	c-0.1-0.3-0.2-0.7-0.2-1c0-0.4,0.2-0.8,0.5-1c0.3-0.3,0.6-0.5,0.9-0.6l5.6-2.1c0.7-0.4,1.6-0.2,2,0.5c0.1,0.1,0.1,0.2,0.1,0.3
	c0.4,1.1-0.3,1.7-1.1,2l-4.2,1.5l0.5,1.3l3.8-1.4c0.7-0.4,1.6-0.1,2,0.5c0,0.1,0.1,0.1,0.1,0.2c0.4,0.7,0.1,1.6-0.7,2
	c-0.1,0-0.2,0.1-0.3,0.1l-3.8,1.4l0.6,1.7l4.3-1.6c1.2-0.4,1.8,0,2.1,0.8c0.4,0.8,0.1,1.7-0.7,2c-0.1,0.1-0.2,0.1-0.3,0.1l-5.7,2.2
	C594.8,358.5,594.2,358.5,593.7,358.3 M604.3,397.3h-2c-0.4,0-0.7-0.3-0.7-0.7c0-0.4,0.3-0.7,0.7-0.7h5.5c0.4,0,0.7,0.3,0.7,0.7
	c0,0.4-0.3,0.7-0.7,0.7h-2v6.3c0,0.4-0.3,0.7-0.7,0.7c-0.4,0-0.7-0.3-0.7-0.7L604.3,397.3L604.3,397.3z M609.2,396.7
	c0-0.4,0.3-0.7,0.7-0.7l0,0h0.2c0.3,0,0.5,0.2,0.7,0.4l2.5,3.9l2.5-3.9c0.1-0.2,0.4-0.4,0.7-0.4h0.2c0.4,0,0.7,0.3,0.7,0.7
	c0,0,0,0,0,0v7c0,0.4-0.3,0.7-0.7,0.7c0,0,0,0,0,0c-0.4,0-0.7-0.3-0.7-0.7v-5l-2,3c-0.2,0.3-0.6,0.5-0.9,0.3
	c-0.1-0.1-0.3-0.2-0.3-0.3l-2-3v5c0,0.4-0.3,0.7-0.7,0.7c0,0,0,0,0,0c-0.4,0-0.7-0.3-0.7-0.7c0,0,0,0,0,0L609.2,396.7L609.2,396.7z"
	/>
</svg>
